<svg width="400" height="600" viewBox="0 0 400 600" xmlns="http://www.w3.org/2000/svg">
  <!-- Sky gradient background -->
  <defs>
    <linearGradient id="skyGradient" x1="0%" y1="0%" x2="0%" y2="100%">
      <stop offset="0%" style="stop-color:#FF6B35;stop-opacity:1" />
      <stop offset="30%" style="stop-color:#F7931E;stop-opacity:1" />
      <stop offset="60%" style="stop-color:#FFD23F;stop-opacity:1" />
      <stop offset="80%" style="stop-color:#FF8C42;stop-opacity:1" />
      <stop offset="100%" style="stop-color:#C73E1D;stop-opacity:1" />
    </linearGradient>
    
    <linearGradient id="towerGradient" x1="0%" y1="0%" x2="0%" y2="100%">
      <stop offset="0%" style="stop-color:#2C3E50;stop-opacity:1" />
      <stop offset="100%" style="stop-color:#1A252F;stop-opacity:1" />
    </linearGradient>
    
    <radialGradient id="sunGradient" cx="50%" cy="50%" r="50%">
      <stop offset="0%" style="stop-color:#FFF8DC;stop-opacity:1" />
      <stop offset="70%" style="stop-color:#FFD700;stop-opacity:1" />
      <stop offset="100%" style="stop-color:#FF8C00;stop-opacity:0.8" />
    </radialGradient>
  </defs>
  
  <!-- Sky background -->
  <rect width="400" height="600" fill="url(#skyGradient)"/>
  
  <!-- Sun -->
  <circle cx="320" cy="150" r="60" fill="url(#sunGradient)"/>
  
  <!-- Sun rays -->
  <g stroke="#FFD700" stroke-width="2" opacity="0.6">
    <line x1="320" y1="50" x2="320" y2="80" />
    <line x1="320" y1="220" x2="320" y2="250" />
    <line x1="220" y1="150" x2="250" y2="150" />
    <line x1="390" y1="150" x2="420" y2="150" />
    <line x1="255" y1="85" x2="275" y2="105" />
    <line x1="365" y1="195" x2="385" y2="215" />
    <line x1="385" y1="85" x2="365" y2="105" />
    <line x1="275" y1="195" x2="255" y2="215" />
  </g>
  
  <!-- Clouds -->
  <g fill="#FFE4B5" opacity="0.7">
    <ellipse cx="80" cy="100" rx="30" ry="15"/>
    <ellipse cx="100" cy="95" rx="25" ry="12"/>
    <ellipse cx="120" cy="100" rx="20" ry="10"/>
    
    <ellipse cx="150" cy="80" rx="35" ry="18"/>
    <ellipse cx="175" cy="75" rx="30" ry="15"/>
    
    <ellipse cx="50" cy="200" rx="40" ry="20"/>
    <ellipse cx="80" cy="195" rx="35" ry="18"/>
  </g>
  
  <!-- Tower base building -->
  <rect x="180" y="400" width="40" height="200" fill="url(#towerGradient)"/>
  
  <!-- Tower main structure -->
  <rect x="190" y="200" width="20" height="200" fill="url(#towerGradient)"/>
  
  <!-- Tower top section -->
  <rect x="185" y="150" width="30" height="50" fill="url(#towerGradient)"/>
  
  <!-- Tower spire -->
  <polygon points="200,150 195,100 205,100" fill="url(#towerGradient)"/>
  
  <!-- Tower antenna -->
  <line x1="200" y1="100" x2="200" y2="50" stroke="#34495E" stroke-width="2"/>
  
  <!-- Tower details -->
  <g fill="#F39C12" opacity="0.8">
    <!-- Windows/lights -->
    <rect x="192" y="180" width="3" height="4"/>
    <rect x="205" y="180" width="3" height="4"/>
    <rect x="192" y="200" width="3" height="4"/>
    <rect x="205" y="200" width="3" height="4"/>
    <rect x="192" y="220" width="3" height="4"/>
    <rect x="205" y="220" width="3" height="4"/>
    <rect x="192" y="240" width="3" height="4"/>
    <rect x="205" y="240" width="3" height="4"/>
    <rect x="192" y="260" width="3" height="4"/>
    <rect x="205" y="260" width="3" height="4"/>
    <rect x="192" y="280" width="3" height="4"/>
    <rect x="205" y="280" width="3" height="4"/>
  </g>
  
  <!-- Water/river at bottom -->
  <rect x="0" y="500" width="400" height="100" fill="#2980B9" opacity="0.6"/>
  
  <!-- Water reflection -->
  <g opacity="0.3">
    <rect x="190" y="520" width="20" height="80" fill="url(#towerGradient)"/>
    <circle cx="320" cy="550" r="30" fill="url(#sunGradient)"/>
  </g>
  
  <!-- Foreground silhouettes -->
  <g fill="#1A252F">
    <rect x="0" y="450" width="60" height="150"/>
    <rect x="340" y="480" width="60" height="120"/>
    <polygon points="60,500 80,480 100,500 100,600 60,600"/>
    <polygon points="300,520 320,500 340,520 340,600 300,600"/>
  </g>
</svg>